0, 0, Header, 1, 2, 220
1, 0, Start_track
1, 0, Tempo, 500000
1, 0, Time_signature, 4, 2, 24, 8
1, 1, End_track
2, 0, Start_track
2, 0, Program_c, 0, 4
2, 5, Note_on_c, 0, 38, 67
2, 5, Note_on_c, 0, 62, 71
2, 5, Note_on_c, 0, 69, 64
2, 15, Note_on_c, 0, 81, 37
2, 31, Note_on_c, 0, 57, 56
2, 97, Note_on_c, 0, 81, 0
2, 102, Note_on_c, 0, 81, 51
2, 107, Note_on_c, 0, 54, 74
2, 112, Note_on_c, 0, 45, 62
2, 112, Note_on_c, 0, 66, 46
2, 123, Note_on_c, 0, 38, 0
2, 148, Note_on_c, 0, 57, 0
2, 230, Note_on_c, 0, 81, 0
2, 266, Note_on_c, 0, 66, 0
2, 276, Note_on_c, 0, 62, 0
2, 307, Note_on_c, 0, 54, 0
2, 307, Note_on_c, 0, 79, 93
2, 312, Note_on_c, 0, 43, 69
2, 312, Note_on_c, 0, 69, 0
2, 352, Note_on_c, 0, 45, 0
2, 424, Note_on_c, 0, 79, 0
2, 424, Note_on_c, 0, 79, 91
2, 470, Note_on_c, 0, 67, 54
2, 485, Note_on_c, 0, 50, 69
2, 516, Note_on_c, 0, 79, 0
2, 516, Note_on_c, 0, 79, 84
2, 567, Note_on_c, 0, 55, 58
2, 572, Note_on_c, 0, 67, 0
2, 593, Note_on_c, 0, 79, 0
2, 593, Note_on_c, 0, 79, 62
2, 654, Note_on_c, 0, 55, 0
2, 654, Note_on_c, 0, 55, 44
2, 659, Note_on_c, 0, 67, 51
2, 659, Note_on_c, 0, 79, 0
2, 659, Note_on_c, 0, 79, 72
2, 664, Note_on_c, 0, 59, 60
2, 669, Note_on_c, 0, 50, 0
2, 766, Note_on_c, 0, 62, 47
2, 828, Note_on_c, 0, 62, 0
2, 838, Note_on_c, 0, 55, 0
2, 838, Note_on_c, 0, 55, 56
2, 838, Note_on_c, 0, 67, 0
2, 838, Note_on_c, 0, 67, 55
2, 838, Note_on_c, 0, 79, 0
2, 838, Note_on_c, 0, 79, 88
2, 853, Note_on_c, 0, 43, 0
2, 853, Note_on_c, 0, 43, 77
2, 925, Note_on_c, 0, 55, 0
2, 935, Note_on_c, 0, 67, 0
2, 956, Note_on_c, 0, 79, 0
2, 956, Note_on_c, 0, 79, 85
2, 997, Note_on_c, 0, 59, 0
2, 1027, Note_on_c, 0, 78, 81
2, 1027, Note_on_c, 0, 79, 0
2, 1032, Note_on_c, 0, 38, 84
2, 1032, Note_on_c, 0, 43, 0
2, 1032, Note_on_c, 0, 43, 53
2, 1032, Note_on_c, 0, 50, 45
2, 1094, Note_on_c, 0, 66, 50
2, 1165, Note_on_c, 0, 78, 0
2, 1165, Note_on_c, 0, 78, 79
2, 1170, Note_on_c, 0, 43, 0
2, 1186, Note_on_c, 0, 50, 0
2, 1211, Note_on_c, 0, 62, 60
2, 1237, Note_on_c, 0, 66, 0
2, 1237, Note_on_c, 0, 78, 0
2, 1237, Note_on_c, 0, 78, 64
2, 1242, Note_on_c, 0, 66, 69
2, 1283, Note_on_c, 0, 50, 40
2, 1390, Note_on_c, 0, 62, 0
2, 1390, Note_on_c, 0, 62, 65
2, 1395, Note_on_c, 0, 66, 0
2, 1395, Note_on_c, 0, 66, 71
2, 1395, Note_on_c, 0, 78, 0
2, 1395, Note_on_c, 0, 78, 81
2, 1431, Note_on_c, 0, 50, 0
2, 1528, Note_on_c, 0, 57, 42
2, 1533, Note_on_c, 0, 78, 0
2, 1533, Note_on_c, 0, 78, 74
2, 1610, Note_on_c, 0, 78, 0
2, 1610, Note_on_c, 0, 78, 65
2, 1645, Note_on_c, 0, 66, 0
2, 1645, Note_on_c, 0, 66, 63
2, 1702, Note_on_c, 0, 57, 0
2, 1743, Note_on_c, 0, 62, 0
2, 1753, Note_on_c, 0, 78, 0
2, 1758, Note_on_c, 0, 38, 0
2, 1758, Note_on_c, 0, 76, 62
2, 1769, Note_on_c, 0, 45, 68
2, 1840, Note_on_c, 0, 64, 44
2, 1855, Note_on_c, 0, 61, 38
2, 1866, Note_on_c, 0, 66, 0
2, 1871, Note_on_c, 0, 76, 0
2, 1871, Note_on_c, 0, 76, 64
2, 1907, Note_on_c, 0, 64, 0
2, 1917, Note_on_c, 0, 61, 0
2, 1937, Note_on_c, 0, 55, 67
2, 1937, Note_on_c, 0, 74, 66
2, 1937, Note_on_c, 0, 76, 0
2, 1988, Note_on_c, 0, 64, 56
2, 2106, Note_on_c, 0, 74, 0
2, 2106, Note_on_c, 0, 76, 56
2, 2111, Note_on_c, 0, 64, 0
2, 2116, Note_on_c, 0, 64, 67
2, 2121, Note_on_c, 0, 61, 64
2, 2269, Note_on_c, 0, 55, 0
2, 2274, Note_on_c, 0, 64, 0
2, 2279, Note_on_c, 0, 76, 0
2, 2285, Note_on_c, 0, 78, 84
2, 2315, Note_on_c, 0, 45, 0
2, 2315, Note_on_c, 0, 45, 75
2, 2320, Note_on_c, 0, 64, 45
2, 2428, Note_on_c, 0, 78, 0
2, 2428, Note_on_c, 0, 78, 76
2, 2458, Note_on_c, 0, 64, 0
2, 2468, Note_on_c, 0, 61, 0
2, 2489, Note_on_c, 0, 74, 78
2, 2489, Note_on_c, 0, 78, 0
2, 2494, Note_on_c, 0, 69, 52
2, 2499, Note_on_c, 0, 50, 45
2, 2504, Note_on_c, 0, 38, 74
2, 2576, Note_on_c, 0, 45, 0
2, 2581, Note_on_c, 0, 50, 0
2, 2684, Note_on_c, 0, 74, 0
2, 2684, Note_on_c, 0, 74, 70
2, 2689, Note_on_c, 0, 62, 57
2, 2714, Note_on_c, 0, 54, 47
2, 2776, Note_on_c, 0, 62, 0
2, 2781, Note_on_c, 0, 62, 77
2, 2781, Note_on_c, 0, 74, 0
2, 2781, Note_on_c, 0, 74, 49
2, 2791, Note_on_c, 0, 50, 38
2, 2811, Note_on_c, 0, 69, 0
2, 2857, Note_on_c, 0, 62, 0
2, 2857, Note_on_c, 0, 62, 76
2, 2883, Note_on_c, 0, 50, 0
2, 2903, Note_on_c, 0, 57, 47
2, 2908, Note_on_c, 0, 74, 0
2, 3108, Note_on_c, 0, 54, 0
2, 3184, Note_on_c, 0, 57, 0
2, 3225, Note_on_c, 0, 38, 0
2, 3225, Note_on_c, 0, 38, 73
2, 3225, Note_on_c, 0, 69, 45
2, 3230, Note_on_c, 0, 81, 82
2, 3256, Note_on_c, 0, 62, 0
2, 3312, Note_on_c, 0, 81, 0
2, 3312, Note_on_c, 0, 81, 74
2, 3404, Note_on_c, 0, 81, 0
2, 3404, Note_on_c, 0, 81, 55
2, 3409, Note_on_c, 0, 69, 0
2, 3409, Note_on_c, 0, 69, 64
2, 3414, Note_on_c, 0, 54, 67
2, 3475, Note_on_c, 0, 66, 46
2, 3496, Note_on_c, 0, 57, 56
2, 3496, Note_on_c, 0, 69, 0
2, 3496, Note_on_c, 0, 69, 74
2, 3512, Note_on_c, 0, 62, 43
2, 3558, Note_on_c, 0, 57, 0
2, 3563, Note_on_c, 0, 66, 0
2, 3583, Note_on_c, 0, 69, 0
2, 3583, Note_on_c, 0, 69, 70
2, 3588, Note_on_c, 0, 62, 0
2, 3588, Note_on_c, 0, 62, 77
2, 3588, Note_on_c, 0, 81, 0
2, 3588, Note_on_c, 0, 81, 66
2, 3634, Note_on_c, 0, 57, 43
2, 3650, Note_on_c, 0, 54, 0
2, 3675, Note_on_c, 0, 81, 0
2, 3675, Note_on_c, 0, 81, 46
2, 3772, Note_on_c, 0, 69, 0
2, 3772, Note_on_c, 0, 69, 62
2, 3772, Note_on_c, 0, 81, 0
2, 3772, Note_on_c, 0, 81, 68
2, 3777, Note_on_c, 0, 62, 0
2, 3777, Note_on_c, 0, 62, 62
2, 3818, Note_on_c, 0, 57, 0
2, 3844, Note_on_c, 0, 69, 0
2, 3844, Note_on_c, 0, 69, 62
2, 3900, Note_on_c, 0, 62, 0
2, 3941, Note_on_c, 0, 81, 0
2, 3956, Note_on_c, 0, 79, 87
2, 3961, Note_on_c, 0, 38, 0
2, 3961, Note_on_c, 0, 43, 73
2, 3961, Note_on_c, 0, 69, 0
2, 4038, Note_on_c, 0, 67, 45
2, 4069, Note_on_c, 0, 79, 0
2, 4069, Note_on_c, 0, 79, 86
2, 4140, Note_on_c, 0, 67, 0
2, 4145, Note_on_c, 0, 59, 56
2, 4145, Note_on_c, 0, 67, 71
2, 4171, Note_on_c, 0, 79, 0
2, 4171, Note_on_c, 0, 79, 78
2, 4242, Note_on_c, 0, 79, 0
2, 4242, Note_on_c, 0, 79, 50
2, 4314, Note_on_c, 0, 59, 0
2, 4324, Note_on_c, 0, 55, 58
2, 4324, Note_on_c, 0, 67, 0
2, 4324, Note_on_c, 0, 67, 64
2, 4324, Note_on_c, 0, 79, 0
2, 4324, Note_on_c, 0, 79, 81
2, 4442, Note_on_c, 0, 67, 0
2, 4442, Note_on_c, 0, 67, 71
2, 4442, Note_on_c, 0, 79, 0
2, 4442, Note_on_c, 0, 79, 80
2, 4539, Note_on_c, 0, 79, 0
2, 4539, Note_on_c, 0, 79, 68
2, 4590, Note_on_c, 0, 59, 50
2, 4611, Note_on_c, 0, 79, 0
2, 4611, Note_on_c, 0, 79, 74
2, 4692, Note_on_c, 0, 79, 0
2, 4697, Note_on_c, 0, 38, 85
2, 4697, Note_on_c, 0, 67, 0
2, 4703, Note_on_c, 0, 66, 32
2, 4703, Note_on_c, 0, 78, 71
2, 4708, Note_on_c, 0, 55, 0
2, 4713, Note_on_c, 0, 50, 44
2, 4743, Note_on_c, 0, 43, 0
2, 4754, Note_on_c, 0, 59, 0
2, 4764, Note_on_c, 0, 66, 0
2, 4830, Note_on_c, 0, 66, 54
2, 4856, Note_on_c, 0, 50, 0
2, 4861, Note_on_c, 0, 57, 49
2, 4866, Note_on_c, 0, 78, 0
2, 4866, Note_on_c, 0, 79, 83
2, 4871, Note_on_c, 0, 54, 69
2, 4938, Note_on_c, 0, 57, 0
2, 4989, Note_on_c, 0, 79, 0
2, 4989, Note_on_c, 0, 79, 76
2, 5014, Note_on_c, 0, 57, 47
2, 5050, Note_on_c, 0, 62, 54
2, 5050, Note_on_c, 0, 79, 0
2, 5055, Note_on_c, 0, 38, 0
2, 5055, Note_on_c, 0, 38, 76
2, 5055, Note_on_c, 0, 81, 71
2, 5096, Note_on_c, 0, 57, 0
2, 5111, Note_on_c, 0, 54, 0
2, 5137, Note_on_c, 0, 81, 0
2, 5137, Note_on_c, 0, 81, 59
2, 5208, Note_on_c, 0, 81, 0
2, 5218, Note_on_c, 0, 66, 0
2, 5224, Note_on_c, 0, 66, 68
2, 5224, Note_on_c, 0, 78, 77
2, 5255, Note_on_c, 0, 38, 0
2, 5255, Note_on_c, 0, 38, 78
2, 5352, Note_on_c, 0, 78, 0
2, 5352, Note_on_c, 0, 78, 70
2, 5362, Note_on_c, 0, 66, 0
2, 5362, Note_on_c, 0, 66, 70
2, 5403, Note_on_c, 0, 62, 0
2, 5413, Note_on_c, 0, 78, 0
2, 5418, Note_on_c, 0, 76, 58
2, 5423, Note_on_c, 0, 38, 0
2, 5423, Note_on_c, 0, 64, 68
2, 5428, Note_on_c, 0, 61, 60
2, 5428, Note_on_c, 0, 66, 0
2, 5434, Note_on_c, 0, 45, 67
2, 5684, Note_on_c, 0, 76, 0
2, 5745, Note_on_c, 0, 64, 0
2, 5745, Note_on_c, 0, 64, 80
2, 5801, Note_on_c, 0, 55, 58
2, 5970, Note_on_c, 0, 40, 71
2, 5975, Note_on_c, 0, 45, 0
2, 5975, Note_on_c, 0, 52, 60
2, 6026, Note_on_c, 0, 61, 0
2, 6129, Note_on_c, 0, 55, 0
2, 6149, Note_on_c, 0, 64, 0
2, 6149, Note_on_c, 0, 64, 64
2, 6149, Note_on_c, 0, 69, 60
2, 6154, Note_on_c, 0, 81, 79
2, 6160, Note_on_c, 0, 38, 68
2, 6160, Note_on_c, 0, 52, 0
2, 6180, Note_on_c, 0, 40, 0
2, 6236, Note_on_c, 0, 64, 0
2, 6241, Note_on_c, 0, 81, 0
2, 6241, Note_on_c, 0, 81, 71
2, 6328, Note_on_c, 0, 81, 0
2, 6328, Note_on_c, 0, 81, 58
2, 6338, Note_on_c, 0, 54, 65
2, 6349, Note_on_c, 0, 66, 46
2, 6425, Note_on_c, 0, 57, 41
2, 6430, Note_on_c, 0, 62, 50
2, 6456, Note_on_c, 0, 81, 0
2, 6522, Note_on_c, 0, 62, 0
2, 6522, Note_on_c, 0, 69, 0
2, 6522, Note_on_c, 0, 69, 79
2, 6527, Note_on_c, 0, 62, 82
2, 6527, Note_on_c, 0, 81, 58
2, 6604, Note_on_c, 0, 54, 0
2, 6609, Note_on_c, 0, 69, 0
2, 6609, Note_on_c, 0, 69, 79
2, 6640, Note_on_c, 0, 81, 0
2, 6701, Note_on_c, 0, 62, 0
2, 6701, Note_on_c, 0, 62, 59
2, 6701, Note_on_c, 0, 81, 59
2, 6721, Note_on_c, 0, 38, 0
2, 6721, Note_on_c, 0, 38, 72
2, 6742, Note_on_c, 0, 57, 0
2, 6752, Note_on_c, 0, 69, 0
2, 6752, Note_on_c, 0, 69, 70
2, 6767, Note_on_c, 0, 66, 0
2, 6793, Note_on_c, 0, 81, 0
2, 6793, Note_on_c, 0, 81, 48
2, 6890, Note_on_c, 0, 38, 0
2, 6890, Note_on_c, 0, 79, 85
2, 6890, Note_on_c, 0, 81, 0
2, 6895, Note_on_c, 0, 62, 0
2, 6900, Note_on_c, 0, 43, 64
2, 6962, Note_on_c, 0, 69, 0
2, 7018, Note_on_c, 0, 79, 0
2, 7018, Note_on_c, 0, 79, 84
2, 7069, Note_on_c, 0, 59, 56
2, 7090, Note_on_c, 0, 67, 66
2, 7090, Note_on_c, 0, 79, 0
2, 7090, Note_on_c, 0, 79, 58
2, 7172, Note_on_c, 0, 67, 0
2, 7172, Note_on_c, 0, 67, 73
2, 7187, Note_on_c, 0, 62, 52
2, 7248, Note_on_c, 0, 62, 0
2, 7253, Note_on_c, 0, 55, 58
2, 7258, Note_on_c, 0, 67, 0
2, 7258, Note_on_c, 0, 67, 63
2, 7258, Note_on_c, 0, 79, 0
2, 7258, Note_on_c, 0, 79, 76
2, 7310, Note_on_c, 0, 62, 47
2, 7371, Note_on_c, 0, 67, 0
2, 7371, Note_on_c, 0, 67, 69
2, 7376, Note_on_c, 0, 79, 0
2, 7376, Note_on_c, 0, 79, 68
2, 7396, Note_on_c, 0, 62, 0
2, 7437, Note_on_c, 0, 50, 58
2, 7473, Note_on_c, 0, 79, 0
2, 7473, Note_on_c, 0, 79, 65
2, 7545, Note_on_c, 0, 79, 0
2, 7545, Note_on_c, 0, 79, 66
2, 7590, Note_on_c, 0, 59, 0
2, 7621, Note_on_c, 0, 66, 40
2, 7621, Note_on_c, 0, 67, 0
2, 7621, Note_on_c, 0, 79, 0
2, 7626, Note_on_c, 0, 78, 71
2, 7631, Note_on_c, 0, 38, 77
2, 7631, Note_on_c, 0, 50, 0
2, 7631, Note_on_c, 0, 50, 54
2, 7672, Note_on_c, 0, 43, 0
2, 7677, Note_on_c, 0, 55, 0
2, 7718, Note_on_c, 0, 50, 0
2, 7769, Note_on_c, 0, 66, 0
2, 7800, Note_on_c, 0, 78, 0
2, 7800, Note_on_c, 0, 79, 81
2, 7805, Note_on_c, 0, 54, 71
2, 7851, Note_on_c, 0, 57, 54
2, 7913, Note_on_c, 0, 79, 0
2, 7913, Note_on_c, 0, 79, 80
2, 7944, Note_on_c, 0, 66, 58
2, 7979, Note_on_c, 0, 62, 70
2, 7979, Note_on_c, 0, 81, 63
2, 7984, Note_on_c, 0, 79, 0
2, 8005, Note_on_c, 0, 57, 0
2, 8025, Note_on_c, 0, 54, 0
2, 8061, Note_on_c, 0, 81, 0
2, 8061, Note_on_c, 0, 81, 58
2, 8107, Note_on_c, 0, 57, 51
2, 8122, Note_on_c, 0, 81, 0
2, 8158, Note_on_c, 0, 66, 0
2, 8158, Note_on_c, 0, 66, 66
2, 8163, Note_on_c, 0, 78, 76
2, 8219, Note_on_c, 0, 57, 0
2, 8332, Note_on_c, 0, 62, 0
2, 8347, Note_on_c, 0, 76, 57
2, 8347, Note_on_c, 0, 78, 0
2, 8352, Note_on_c, 0, 64, 68
2, 8362, Note_on_c, 0, 45, 62
2, 8362, Note_on_c, 0, 55, 43
2, 8378, Note_on_c, 0, 38, 0
2, 8393, Note_on_c, 0, 66, 0
2, 8459, Note_on_c, 0, 76, 0
2, 8459, Note_on_c, 0, 76, 52
2, 8470, Note_on_c, 0, 61, 39
2, 8490, Note_on_c, 0, 55, 0
2, 8531, Note_on_c, 0, 61, 0
2, 8536, Note_on_c, 0, 61, 68
2, 8725, Note_on_c, 0, 55, 63
2, 8730, Note_on_c, 0, 76, 0
2, 8735, Note_on_c, 0, 64, 0
2, 8735, Note_on_c, 0, 64, 83
2, 8899, Note_on_c, 0, 52, 72
2, 8899, Note_on_c, 0, 64, 0
2, 8899, Note_on_c, 0, 64, 81
2, 9027, Note_on_c, 0, 64, 0
2, 9027, Note_on_c, 0, 64, 71
2, 9058, Note_on_c, 0, 61, 0
2, 9083, Note_on_c, 0, 45, 0
2, 9093, Note_on_c, 0, 74, 82
2, 9109, Note_on_c, 0, 52, 0
2, 9114, Note_on_c, 0, 55, 0
2, 9124, Note_on_c, 0, 38, 74
2, 9134, Note_on_c, 0, 64, 0
2, 9272, Note_on_c, 0, 54, 65
2, 9288, Note_on_c, 0, 74, 0
2, 9288, Note_on_c, 0, 74, 59
2, 9364, Note_on_c, 0, 57, 60
2, 9451, Note_on_c, 0, 57, 0
2, 9466, Note_on_c, 0, 62, 80
2, 9466, Note_on_c, 0, 74, 0
2, 9466, Note_on_c, 0, 74, 61
2, 9553, Note_on_c, 0, 57, 60
2, 9636, Note_on_c, 0, 62, 0
2, 9636, Note_on_c, 0, 62, 62
2, 9641, Note_on_c, 0, 74, 0
2, 9641, Note_on_c, 0, 74, 72
2, 9676, Note_on_c, 0, 57, 0
2, 9722, Note_on_c, 0, 54, 0
2, 9819, Note_on_c, 0, 62, 0
2, 9819, Note_on_c, 0, 69, 59
2, 9825, Note_on_c, 0, 81, 78
2, 9845, Note_on_c, 0, 38, 0
2, 9845, Note_on_c, 0, 38, 74
2, 9855, Note_on_c, 0, 74, 0
2, 9916, Note_on_c, 0, 81, 0
2, 9916, Note_on_c, 0, 81, 70
2, 9993, Note_on_c, 0, 62, 55
2, 9998, Note_on_c, 0, 81, 0
2, 9998, Note_on_c, 0, 81, 57
2, 10039, Note_on_c, 0, 66, 45
2, 10116, Note_on_c, 0, 81, 0
2, 10182, Note_on_c, 0, 69, 0
2, 10182, Note_on_c, 0, 69, 75
2, 10187, Note_on_c, 0, 81, 55
2, 10269, Note_on_c, 0, 81, 0
2, 10269, Note_on_c, 0, 81, 49
2, 10346, Note_on_c, 0, 57, 52
2, 10376, Note_on_c, 0, 62, 0
2, 10376, Note_on_c, 0, 62, 71
2, 10432, Note_on_c, 0, 57, 0
2, 10448, Note_on_c, 0, 81, 0
2, 10448, Note_on_c, 0, 81, 56
2, 10520, Note_on_c, 0, 66, 0
2, 10535, Note_on_c, 0, 38, 0
2, 10540, Note_on_c, 0, 83, 83
2, 10545, Note_on_c, 0, 62, 0
2, 10545, Note_on_c, 0, 81, 0
2, 10556, Note_on_c, 0, 43, 75
2, 10581, Note_on_c, 0, 69, 0
2, 10617, Note_on_c, 0, 71, 52
2, 10653, Note_on_c, 0, 83, 0
2, 10653, Note_on_c, 0, 83, 51
2, 10719, Note_on_c, 0, 85, 66
2, 10740, Note_on_c, 0, 55, 49
2, 10775, Note_on_c, 0, 83, 0
2, 10862, Note_on_c, 0, 71, 0
2, 10867, Note_on_c, 0, 71, 54
2, 10888, Note_on_c, 0, 85, 0
2, 10908, Note_on_c, 0, 67, 56
2, 10908, Note_on_c, 0, 86, 66
2, 10918, Note_on_c, 0, 59, 68
2, 10923, Note_on_c, 0, 62, 49
2, 10944, Note_on_c, 0, 55, 0
2, 11072, Note_on_c, 0, 62, 0
2, 11082, Note_on_c, 0, 86, 0
2, 11087, Note_on_c, 0, 71, 0
2, 11087, Note_on_c, 0, 71, 67
2, 11092, Note_on_c, 0, 83, 66
2, 11097, Note_on_c, 0, 55, 63
2, 11097, Note_on_c, 0, 67, 0
2, 11204, Note_on_c, 0, 83, 0
2, 11204, Note_on_c, 0, 83, 67
2, 11271, Note_on_c, 0, 55, 0
2, 11271, Note_on_c, 0, 59, 0
2, 11271, Note_on_c, 0, 83, 0
2, 11281, Note_on_c, 0, 71, 0
2, 11291, Note_on_c, 0, 62, 59
2, 11296, Note_on_c, 0, 38, 79
2, 11296, Note_on_c, 0, 50, 40
2, 11296, Note_on_c, 0, 81, 75
2, 11363, Note_on_c, 0, 50, 0
2, 11368, Note_on_c, 0, 81, 0
2, 11368, Note_on_c, 0, 81, 73
2, 11425, Note_on_c, 0, 43, 0
2, 11430, Note_on_c, 0, 69, 61
2, 11460, Note_on_c, 0, 81, 0
2, 11460, Note_on_c, 0, 81, 61
2, 11465, Note_on_c, 0, 62, 0
2, 11465, Note_on_c, 0, 62, 73
2, 11517, Note_on_c, 0, 54, 41
2, 11614, Note_on_c, 0, 54, 0
2, 11649, Note_on_c, 0, 57, 53
2, 11675, Note_on_c, 0, 54, 45
2, 11726, Note_on_c, 0, 81, 0
2, 11726, Note_on_c, 0, 81, 45
2, 11746, Note_on_c, 0, 69, 0
2, 11752, Note_on_c, 0, 69, 66
2, 11833, Note_on_c, 0, 54, 0
2, 11838, Note_on_c, 0, 54, 74
2, 11838, Note_on_c, 0, 66, 41
2, 11843, Note_on_c, 0, 45, 68
2, 11843, Note_on_c, 0, 62, 0
2, 11843, Note_on_c, 0, 62, 60
2, 11895, Note_on_c, 0, 38, 0
2, 11915, Note_on_c, 0, 57, 0
2, 11951, Note_on_c, 0, 81, 0
2, 11981, Note_on_c, 0, 62, 0
2, 11992, Note_on_c, 0, 66, 0
2, 12017, Note_on_c, 0, 43, 57
2, 12027, Note_on_c, 0, 69, 0
2, 12027, Note_on_c, 0, 79, 95
2, 12073, Note_on_c, 0, 54, 0
2, 12104, Note_on_c, 0, 67, 55
2, 12114, Note_on_c, 0, 45, 0
2, 12176, Note_on_c, 0, 79, 0
2, 12176, Note_on_c, 0, 79, 89
2, 12206, Note_on_c, 0, 50, 59
2, 12243, Note_on_c, 0, 79, 0
2, 12243, Note_on_c, 0, 79, 86
2, 12258, Note_on_c, 0, 43, 0
2, 12258, Note_on_c, 0, 43, 68
2, 12273, Note_on_c, 0, 55, 50
2, 12324, Note_on_c, 0, 79, 0
2, 12324, Note_on_c, 0, 79, 74
2, 12370, Note_on_c, 0, 50, 0
2, 12380, Note_on_c, 0, 59, 65
2, 12380, Note_on_c, 0, 62, 49
2, 12380, Note_on_c, 0, 81, 76
2, 12386, Note_on_c, 0, 79, 0
2, 12457, Note_on_c, 0, 81, 0
2, 12457, Note_on_c, 0, 81, 67
2, 12462, Note_on_c, 0, 55, 0
2, 12523, Note_on_c, 0, 81, 0
2, 12549, Note_on_c, 0, 67, 0
2, 12554, Note_on_c, 0, 62, 0
2, 12554, Note_on_c, 0, 67, 58
2, 12554, Note_on_c, 0, 79, 83
2, 12559, Note_on_c, 0, 55, 50
2, 12590, Note_on_c, 0, 43, 0
2, 12590, Note_on_c, 0, 43, 70
2, 12666, Note_on_c, 0, 79, 0
2, 12666, Note_on_c, 0, 79, 77
2, 12728, Note_on_c, 0, 59, 0
2, 12733, Note_on_c, 0, 67, 0
2, 12743, Note_on_c, 0, 55, 0
2, 12743, Note_on_c, 0, 78, 81
2, 12743, Note_on_c, 0, 79, 0
2, 12748, Note_on_c, 0, 66, 41
2, 12774, Note_on_c, 0, 38, 76
2, 12856, Note_on_c, 0, 66, 0
2, 12856, Note_on_c, 0, 66, 61
2, 12886, Note_on_c, 0, 78, 0
2, 12886, Note_on_c, 0, 78, 64
2, 12891, Note_on_c, 0, 43, 0
2, 12937, Note_on_c, 0, 62, 57
2, 12973, Note_on_c, 0, 66, 0
2, 12973, Note_on_c, 0, 66, 66
2, 13111, Note_on_c, 0, 62, 0
2, 13111, Note_on_c, 0, 62, 73
2, 13111, Note_on_c, 0, 74, 77
2, 13111, Note_on_c, 0, 78, 0
2, 13193, Note_on_c, 0, 57, 43
2, 13214, Note_on_c, 0, 74, 0
2, 13214, Note_on_c, 0, 74, 66
2, 13311, Note_on_c, 0, 74, 0
2, 13311, Note_on_c, 0, 74, 59
2, 13352, Note_on_c, 0, 57, 0
2, 13403, Note_on_c, 0, 74, 0
2, 13403, Note_on_c, 0, 74, 72
2, 13474, Note_on_c, 0, 74, 0
2, 13484, Note_on_c, 0, 45, 80
2, 13484, Note_on_c, 0, 76, 67
2, 13490, Note_on_c, 0, 62, 0
2, 13495, Note_on_c, 0, 66, 0
2, 13510, Note_on_c, 0, 38, 0
2, 13566, Note_on_c, 0, 64, 56
2, 13602, Note_on_c, 0, 61, 46
2, 13602, Note_on_c, 0, 76, 0
2, 13602, Note_on_c, 0, 76, 65
2, 13673, Note_on_c, 0, 55, 59
2, 13765, Note_on_c, 0, 76, 0
2, 13837, Note_on_c, 0, 64, 0
2, 13842, Note_on_c, 0, 64, 67
2, 13842, Note_on_c, 0, 76, 63
2, 13847, Note_on_c, 0, 61, 0
2, 13852, Note_on_c, 0, 61, 77
2, 13934, Note_on_c, 0, 76, 0
2, 13970, Note_on_c, 0, 61, 0
2, 13970, Note_on_c, 0, 61, 78
2, 14006, Note_on_c, 0, 55, 0
2, 14011, Note_on_c, 0, 76, 62
2, 14016, Note_on_c, 0, 64, 0
2, 14016, Note_on_c, 0, 64, 60
2, 14026, Note_on_c, 0, 61, 0
2, 14026, Note_on_c, 0, 61, 67
2, 14042, Note_on_c, 0, 45, 0
2, 14042, Note_on_c, 0, 45, 82
2, 14078, Note_on_c, 0, 64, 0
2, 14078, Note_on_c, 0, 64, 66
2, 14195, Note_on_c, 0, 61, 0
2, 14195, Note_on_c, 0, 76, 0
2, 14210, Note_on_c, 0, 74, 77
2, 14215, Note_on_c, 0, 69, 52
2, 14221, Note_on_c, 0, 38, 77
2, 14221, Note_on_c, 0, 50, 44
2, 14277, Note_on_c, 0, 45, 0
2, 14277, Note_on_c, 0, 64, 0
2, 14307, Note_on_c, 0, 62, 50
2, 14333, Note_on_c, 0, 50, 0
2, 14404, Note_on_c, 0, 66, 48
2, 14415, Note_on_c, 0, 74, 0
2, 14415, Note_on_c, 0, 74, 48
2, 14491, Note_on_c, 0, 50, 49
2, 14502, Note_on_c, 0, 62, 0
2, 14507, Note_on_c, 0, 62, 83
2, 14563, Note_on_c, 0, 69, 0
2, 14583, Note_on_c, 0, 62, 0
2, 14583, Note_on_c, 0, 62, 77
2, 14645, Note_on_c, 0, 50, 0
2, 14645, Note_on_c, 0, 66, 0
2, 14675, Note_on_c, 0, 57, 52
2, 14941, Note_on_c, 0, 57, 0
2, 14952, Note_on_c, 0, 62, 0
2, 14952, Note_on_c, 0, 62, 58
2, 14952, Note_on_c, 0, 74, 0
2, 14952, Note_on_c, 0, 74, 91
2, 14957, Note_on_c, 0, 38, 0
2, 14957, Note_on_c, 0, 38, 61
2, 15054, Note_on_c, 0, 74, 0
2, 15054, Note_on_c, 0, 74, 81
2, 15161, Note_on_c, 0, 74, 0
2, 15161, Note_on_c, 0, 74, 56
2, 15325, Note_on_c, 0, 62, 0
2, 15325, Note_on_c, 0, 62, 76
2, 15325, Note_on_c, 0, 74, 0
2, 15325, Note_on_c, 0, 74, 84
2, 15396, Note_on_c, 0, 54, 40
2, 15493, Note_on_c, 0, 57, 42
2, 15529, Note_on_c, 0, 74, 0
2, 15529, Note_on_c, 0, 74, 65
2, 15600, Note_on_c, 0, 54, 0
2, 15611, Note_on_c, 0, 57, 0
2, 15677, Note_on_c, 0, 74, 0
2, 15682, Note_on_c, 0, 69, 57
2, 15682, Note_on_c, 0, 81, 69
2, 15687, Note_on_c, 0, 57, 50
2, 15713, Note_on_c, 0, 54, 59
2, 15759, Note_on_c, 0, 81, 0
2, 15759, Note_on_c, 0, 81, 70
2, 15805, Note_on_c, 0, 38, 0
2, 15846, Note_on_c, 0, 81, 0
2, 15846, Note_on_c, 0, 81, 66
2, 15867, Note_on_c, 0, 57, 0
2, 15867, Note_on_c, 0, 57, 61
2, 15913, Note_on_c, 0, 54, 0
2, 15943, Note_on_c, 0, 81, 0
2, 15943, Note_on_c, 0, 81, 45
2, 16035, Note_on_c, 0, 54, 48
2, 16035, Note_on_c, 0, 81, 0
2, 16035, Note_on_c, 0, 81, 61
2, 16040, Note_on_c, 0, 57, 0
2, 16040, Note_on_c, 0, 57, 61
2, 16040, Note_on_c, 0, 62, 0
2, 16040, Note_on_c, 0, 62, 84
2, 16076, Note_on_c, 0, 69, 0
2, 16076, Note_on_c, 0, 69, 77
2, 16117, Note_on_c, 0, 81, 0
2, 16117, Note_on_c, 0, 81, 52
2, 16194, Note_on_c, 0, 54, 0
2, 16301, Note_on_c, 0, 81, 0
2, 16301, Note_on_c, 0, 81, 51
2, 16398, Note_on_c, 0, 57, 0
2, 16408, Note_on_c, 0, 81, 0
2, 16413, Note_on_c, 0, 62, 0
2, 16418, Note_on_c, 0, 71, 52
2, 16418, Note_on_c, 0, 83, 81
2, 16423, Note_on_c, 0, 43, 74
2, 16459, Note_on_c, 0, 69, 0
2, 16515, Note_on_c, 0, 59, 45
2, 16526, Note_on_c, 0, 83, 0
2, 16526, Note_on_c, 0, 83, 58
2, 16587, Note_on_c, 0, 59, 0
2, 16592, Note_on_c, 0, 55, 43
2, 16679, Note_on_c, 0, 83, 0
2, 16705, Note_on_c, 0, 67, 53
2, 16730, Note_on_c, 0, 62, 46
2, 16776, Note_on_c, 0, 71, 0
2, 16776, Note_on_c, 0, 71, 62
2, 16776, Note_on_c, 0, 83, 51
2, 16782, Note_on_c, 0, 59, 76
2, 16792, Note_on_c, 0, 67, 0
2, 16828, Note_on_c, 0, 55, 0
2, 16884, Note_on_c, 0, 55, 50
2, 16920, Note_on_c, 0, 67, 55
2, 16976, Note_on_c, 0, 55, 0
2, 16976, Note_on_c, 0, 62, 0
2, 16981, Note_on_c, 0, 55, 62
2, 16986, Note_on_c, 0, 67, 0
2, 17068, Note_on_c, 0, 71, 0
2, 17068, Note_on_c, 0, 71, 71
2, 17124, Note_on_c, 0, 55, 0
2, 17124, Note_on_c, 0, 59, 0
2, 17129, Note_on_c, 0, 83, 0
2, 17149, Note_on_c, 0, 71, 0
2, 17154, Note_on_c, 0, 38, 53
2, 17154, Note_on_c, 0, 62, 66
2, 17160, Note_on_c, 0, 81, 67
2, 17190, Note_on_c, 0, 66, 51
2, 17216, Note_on_c, 0, 69, 61
2, 17226, Note_on_c, 0, 43, 0
2, 17328, Note_on_c, 0, 57, 50
2, 17446, Note_on_c, 0, 38, 0
2, 17513, Note_on_c, 0, 62, 0
2, 17513, Note_on_c, 0, 62, 77
2, 17574, Note_on_c, 0, 38, 51
2, 17605, Note_on_c, 0, 57, 0
2, 17605, Note_on_c, 0, 81, 0
2, 17605, Note_on_c, 0, 81, 60
2, 17635, Note_on_c, 0, 38, 0
2, 17671, Note_on_c, 0, 69, 0
2, 17691, Note_on_c, 0, 57, 61
2, 17691, Note_on_c, 0, 81, 0
2, 17691, Note_on_c, 0, 81, 59
2, 17778, Note_on_c, 0, 69, 66
2, 17809, Note_on_c, 0, 81, 0
2, 17834, Note_on_c, 0, 66, 0
2, 17865, Note_on_c, 0, 62, 0
2, 17875, Note_on_c, 0, 57, 0
2, 17875, Note_on_c, 0, 79, 91
2, 17886, Note_on_c, 0, 69, 0
2, 17891, Note_on_c, 0, 43, 74
2, 17993, Note_on_c, 0, 79, 0
2, 17993, Note_on_c, 0, 79, 93
2, 18003, Note_on_c, 0, 67, 57
2, 18064, Note_on_c, 0, 55, 42
2, 18100, Note_on_c, 0, 79, 0
2, 18100, Note_on_c, 0, 79, 61
2, 18238, Note_on_c, 0, 67, 0
2, 18243, Note_on_c, 0, 67, 68
2, 18243, Note_on_c, 0, 79, 0
2, 18243, Note_on_c, 0, 79, 90
2, 18248, Note_on_c, 0, 59, 55
2, 18248, Note_on_c, 0, 62, 48
2, 18284, Note_on_c, 0, 55, 0
2, 18361, Note_on_c, 0, 79, 0
2, 18361, Note_on_c, 0, 79, 85
2, 18443, Note_on_c, 0, 62, 0
2, 18443, Note_on_c, 0, 67, 0
2, 18443, Note_on_c, 0, 67, 72
2, 18448, Note_on_c, 0, 55, 57
2, 18458, Note_on_c, 0, 79, 0
2, 18458, Note_on_c, 0, 79, 76
2, 18586, Note_on_c, 0, 55, 0
2, 18596, Note_on_c, 0, 59, 0
2, 18596, Note_on_c, 0, 78, 86
2, 18596, Note_on_c, 0, 79, 0
2, 18601, Note_on_c, 0, 66, 63
2, 18601, Note_on_c, 0, 67, 0
2, 18617, Note_on_c, 0, 62, 72
2, 18622, Note_on_c, 0, 43, 0
2, 18632, Note_on_c, 0, 38, 51
2, 18744, Note_on_c, 0, 78, 0
2, 18744, Note_on_c, 0, 78, 85
2, 18795, Note_on_c, 0, 57, 50
2, 18821, Note_on_c, 0, 78, 0
2, 18821, Note_on_c, 0, 78, 72
2, 18846, Note_on_c, 0, 66, 0
2, 18846, Note_on_c, 0, 66, 78
2, 18892, Note_on_c, 0, 78, 0
2, 18974, Note_on_c, 0, 62, 0
2, 18974, Note_on_c, 0, 62, 78
2, 18974, Note_on_c, 0, 66, 0
2, 18974, Note_on_c, 0, 66, 78
2, 18974, Note_on_c, 0, 78, 84
2, 19087, Note_on_c, 0, 38, 0
2, 19117, Note_on_c, 0, 78, 0
2, 19117, Note_on_c, 0, 78, 72
2, 19184, Note_on_c, 0, 78, 0
2, 19184, Note_on_c, 0, 78, 70
2, 19194, Note_on_c, 0, 66, 0
2, 19194, Note_on_c, 0, 66, 64
2, 19276, Note_on_c, 0, 57, 0
2, 19327, Note_on_c, 0, 78, 0
2, 19332, Note_on_c, 0, 76, 68
2, 19343, Note_on_c, 0, 62, 0
2, 19358, Note_on_c, 0, 45, 75
2, 19429, Note_on_c, 0, 64, 62
2, 19450, Note_on_c, 0, 76, 0
2, 19450, Note_on_c, 0, 76, 72
2, 19465, Note_on_c, 0, 61, 47
2, 19470, Note_on_c, 0, 66, 0
2, 19537, Note_on_c, 0, 55, 64
2, 19547, Note_on_c, 0, 76, 0
2, 19547, Note_on_c, 0, 76, 61
2, 19588, Note_on_c, 0, 61, 0
2, 19634, Note_on_c, 0, 76, 0
2, 19710, Note_on_c, 0, 64, 0
2, 19715, Note_on_c, 0, 61, 70
2, 19715, Note_on_c, 0, 64, 83
2, 19715, Note_on_c, 0, 76, 63
2, 19756, Note_on_c, 0, 55, 0
2, 19828, Note_on_c, 0, 55, 50
2, 19894, Note_on_c, 0, 55, 0
2, 19899, Note_on_c, 0, 55, 60
2, 19940, Note_on_c, 0, 64, 0
2, 19940, Note_on_c, 0, 64, 69
2, 20058, Note_on_c, 0, 61, 0
2, 20073, Note_on_c, 0, 76, 0
2, 20078, Note_on_c, 0, 45, 0
2, 20078, Note_on_c, 0, 62, 69
2, 20083, Note_on_c, 0, 74, 83
2, 20094, Note_on_c, 0, 38, 54
2, 20094, Note_on_c, 0, 66, 44
2, 20115, Note_on_c, 0, 55, 0
2, 20130, Note_on_c, 0, 64, 0
2, 20166, Note_on_c, 0, 66, 0
2, 20206, Note_on_c, 0, 38, 0
2, 20268, Note_on_c, 0, 57, 58
2, 20283, Note_on_c, 0, 74, 0
2, 20283, Note_on_c, 0, 74, 70
2, 20319, Note_on_c, 0, 54, 53
2, 20380, Note_on_c, 0, 74, 0
2, 20380, Note_on_c, 0, 74, 54
2, 20477, Note_on_c, 0, 62, 0
2, 20477, Note_on_c, 0, 62, 84
2, 20477, Note_on_c, 0, 74, 0
2, 20477, Note_on_c, 0, 74, 46
2, 20707, Note_on_c, 0, 74, 0
2, 20748, Note_on_c, 0, 54, 0
2, 20799, Note_on_c, 0, 57, 0
2, 20819, Note_on_c, 0, 38, 68
2, 20819, Note_on_c, 0, 69, 71
2, 20825, Note_on_c, 0, 81, 74
2, 20876, Note_on_c, 0, 62, 0
2, 20989, Note_on_c, 0, 57, 44
2, 20999, Note_on_c, 0, 81, 0
2, 20999, Note_on_c, 0, 81, 61
2, 21070, Note_on_c, 0, 66, 50
2, 21101, Note_on_c, 0, 81, 0
2, 21127, Note_on_c, 0, 62, 59
2, 21173, Note_on_c, 0, 69, 0
2, 21173, Note_on_c, 0, 69, 88
2, 21178, Note_on_c, 0, 81, 51
2, 21208, Note_on_c, 0, 57, 0
2, 21300, Note_on_c, 0, 57, 51
2, 21382, Note_on_c, 0, 66, 0
2, 21438, Note_on_c, 0, 69, 0
2, 21438, Note_on_c, 0, 69, 71
2, 21484, Note_on_c, 0, 81, 0
2, 21515, Note_on_c, 0, 38, 0
2, 21545, Note_on_c, 0, 79, 92
2, 21561, Note_on_c, 0, 43, 57
2, 21632, Note_on_c, 0, 57, 0
2, 21637, Note_on_c, 0, 69, 0
2, 21663, Note_on_c, 0, 79, 0
2, 21663, Note_on_c, 0, 79, 93
2, 21668, Note_on_c, 0, 67, 48
2, 21724, Note_on_c, 0, 55, 60
2, 21745, Note_on_c, 0, 67, 0
2, 21745, Note_on_c, 0, 79, 0
2, 21745, Note_on_c, 0, 79, 58
2, 21750, Note_on_c, 0, 67, 72
2, 21904, Note_on_c, 0, 67, 0
2, 21904, Note_on_c, 0, 67, 67
2, 21909, Note_on_c, 0, 79, 0
2, 21909, Note_on_c, 0, 79, 83
2, 21914, Note_on_c, 0, 59, 50
2, 22026, Note_on_c, 0, 79, 0
2, 22026, Note_on_c, 0, 79, 75
2, 22031, Note_on_c, 0, 67, 0
2, 22031, Note_on_c, 0, 67, 73
2, 22047, Note_on_c, 0, 43, 0
2, 22108, Note_on_c, 0, 79, 0
2, 22108, Note_on_c, 0, 79, 67
2, 22251, Note_on_c, 0, 62, 0
2, 22266, Note_on_c, 0, 79, 0
2, 22271, Note_on_c, 0, 67, 0
2, 22276, Note_on_c, 0, 50, 46
2, 22276, Note_on_c, 0, 78, 81
2, 22282, Note_on_c, 0, 38, 79
2, 22297, Note_on_c, 0, 55, 0
2, 22307, Note_on_c, 0, 59, 0
2, 22420, Note_on_c, 0, 78, 0
2, 22420, Note_on_c, 0, 78, 84
2, 22476, Note_on_c, 0, 66, 61
2, 22486, Note_on_c, 0, 78, 0
2, 22486, Note_on_c, 0, 78, 57
2, 22557, Note_on_c, 0, 50, 0
2, 22588, Note_on_c, 0, 57, 47
2, 22634, Note_on_c, 0, 66, 0
2, 22639, Note_on_c, 0, 66, 58
2, 22639, Note_on_c, 0, 78, 0
2, 22639, Note_on_c, 0, 78, 84
2, 22644, Note_on_c, 0, 62, 62
2, 22829, Note_on_c, 0, 62, 0
2, 22829, Note_on_c, 0, 62, 61
2, 22880, Note_on_c, 0, 66, 0
2, 22880, Note_on_c, 0, 66, 71
2, 22880, Note_on_c, 0, 78, 0
2, 22880, Note_on_c, 0, 78, 75
2, 22946, Note_on_c, 0, 78, 0
2, 22946, Note_on_c, 0, 78, 70
2, 22967, Note_on_c, 0, 57, 0
2, 22982, Note_on_c, 0, 38, 0
2, 22997, Note_on_c, 0, 62, 0
2, 23008, Note_on_c, 0, 55, 42
2, 23018, Note_on_c, 0, 66, 0
2, 23018, Note_on_c, 0, 78, 0
2, 23023, Note_on_c, 0, 64, 69
2, 23023, Note_on_c, 0, 76, 61
2, 23028, Note_on_c, 0, 45, 48
2, 23043, Note_on_c, 0, 61, 57
2, 23197, Note_on_c, 0, 55, 0
2, 23197, Note_on_c, 0, 55, 50
2, 23263, Note_on_c, 0, 64, 0
2, 23263, Note_on_c, 0, 64, 90
2, 23294, Note_on_c, 0, 76, 0
2, 23334, Note_on_c, 0, 45, 0
2, 23401, Note_on_c, 0, 45, 48
2, 23401, Note_on_c, 0, 57, 52
2, 23447, Note_on_c, 0, 61, 0
2, 23452, Note_on_c, 0, 61, 68
2, 23529, Note_on_c, 0, 45, 0
2, 23559, Note_on_c, 0, 57, 0
2, 23611, Note_on_c, 0, 64, 0
2, 23611, Note_on_c, 0, 64, 73
2, 23728, Note_on_c, 0, 61, 0
2, 23734, Note_on_c, 0, 55, 0
2, 23744, Note_on_c, 0, 38, 73
2, 23749, Note_on_c, 0, 69, 55
2, 23754, Note_on_c, 0, 81, 86
2, 23841, Note_on_c, 0, 81, 0
2, 23841, Note_on_c, 0, 81, 73
2, 23846, Note_on_c, 0, 64, 0
2, 23928, Note_on_c, 0, 81, 0
2, 23928, Note_on_c, 0, 81, 65
2, 24025, Note_on_c, 0, 62, 66
2, 24050, Note_on_c, 0, 69, 0
2, 24050, Note_on_c, 0, 69, 86
2, 24060, Note_on_c, 0, 81, 0
2, 24132, Note_on_c, 0, 81, 53
2, 24183, Note_on_c, 0, 69, 0
2, 24183, Note_on_c, 0, 69, 89
2, 24249, Note_on_c, 0, 69, 0
2, 24249, Note_on_c, 0, 69, 76
2, 24438, Note_on_c, 0, 38, 0
2, 24438, Note_on_c, 0, 81, 0
2, 24474, Note_on_c, 0, 62, 0
2, 24474, Note_on_c, 0, 79, 89
2, 24475, Note_on_c, 0, 62, 49
2, 24495, Note_on_c, 0, 43, 51
2, 24541, Note_on_c, 0, 62, 0
2, 24572, Note_on_c, 0, 69, 0
2, 24587, Note_on_c, 0, 79, 0
2, 24587, Note_on_c, 0, 79, 96
2, 24618, Note_on_c, 0, 67, 56
2, 24669, Note_on_c, 0, 79, 0
2, 24669, Note_on_c, 0, 79, 64
2, 24679, Note_on_c, 0, 55, 57
2, 24812, Note_on_c, 0, 43, 0
2, 24832, Note_on_c, 0, 67, 0
2, 24837, Note_on_c, 0, 67, 62
2, 24837, Note_on_c, 0, 79, 0
2, 24837, Note_on_c, 0, 79, 93
2, 24843, Note_on_c, 0, 59, 56
2, 24894, Note_on_c, 0, 62, 46
2, 24955, Note_on_c, 0, 79, 0
2, 24955, Note_on_c, 0, 79, 88
2, 25026, Note_on_c, 0, 55, 0
2, 25026, Note_on_c, 0, 55, 66
2, 25047, Note_on_c, 0, 79, 0
2, 25047, Note_on_c, 0, 79, 88
2, 25057, Note_on_c, 0, 43, 52
2, 25129, Note_on_c, 0, 79, 0
2, 25129, Note_on_c, 0, 79, 83
2, 25139, Note_on_c, 0, 43, 0
2, 25164, Note_on_c, 0, 62, 0
2, 25195, Note_on_c, 0, 78, 83
2, 25195, Note_on_c, 0, 79, 0
2, 25216, Note_on_c, 0, 55, 0
2, 25236, Note_on_c, 0, 38, 78
2, 25251, Note_on_c, 0, 67, 0
2, 25282, Note_on_c, 0, 59, 0
2, 25302, Note_on_c, 0, 66, 64
2, 25333, Note_on_c, 0, 78, 0
2, 25333, Note_on_c, 0, 78, 79
2, 25436, Note_on_c, 0, 78, 0
2, 25436, Note_on_c, 0, 78, 48
2, 25569, Note_on_c, 0, 66, 0
2, 25574, Note_on_c, 0, 66, 73
2, 25574, Note_on_c, 0, 78, 0
2, 25574, Note_on_c, 0, 78, 77
2, 25579, Note_on_c, 0, 62, 71
2, 25701, Note_on_c, 0, 57, 51
2, 25717, Note_on_c, 0, 78, 0
2, 25717, Note_on_c, 0, 78, 77
2, 25763, Note_on_c, 0, 57, 0
2, 25768, Note_on_c, 0, 57, 54
2, 25788, Note_on_c, 0, 78, 0
2, 25788, Note_on_c, 0, 78, 67
2, 25798, Note_on_c, 0, 66, 0
2, 25798, Note_on_c, 0, 66, 67
2, 25926, Note_on_c, 0, 62, 0
2, 25931, Note_on_c, 0, 38, 0
2, 25936, Note_on_c, 0, 55, 41
2, 25936, Note_on_c, 0, 78, 0
2, 25941, Note_on_c, 0, 76, 67
2, 25947, Note_on_c, 0, 64, 73
2, 25957, Note_on_c, 0, 45, 45
2, 25967, Note_on_c, 0, 61, 54
2, 25993, Note_on_c, 0, 57, 0
2, 26044, Note_on_c, 0, 66, 0
2, 26079, Note_on_c, 0, 45, 0
2, 26130, Note_on_c, 0, 55, 0
2, 26130, Note_on_c, 0, 55, 72
2, 26212, Note_on_c, 0, 76, 0
2, 26217, Note_on_c, 0, 61, 0
2, 26222, Note_on_c, 0, 55, 0
2, 26222, Note_on_c, 0, 64, 0
2, 26223, End_track
0, 0, End_of_file